<svg width="490" height="500" viewBox="0 0 490 500" fill="none" xmlns="http://www.w3.org/2000/svg">
<path d="M358.387 233.562L355.905 242.822L322.615 233.902C322.72 236.45 322.639 239.106 322.371 241.87C322.142 244.487 321.693 247.044 321.023 249.543C319.921 253.658 318.27 257.469 316.07 260.976C313.87 264.482 311.269 267.723 308.266 270.699C305.449 273.568 302.305 276.191 298.832 278.568C295.507 280.985 292.147 283.236 288.753 285.319L289.076 285.878C292.262 285.157 295.703 284.661 299.399 284.391C303.134 283.974 306.765 284.238 310.292 285.183C315.289 286.522 319.34 288.159 322.445 290.094C325.589 291.881 328.474 293.757 331.098 295.72C333.723 297.684 336.293 299.554 338.81 301.331C341.366 302.961 344.482 304.269 348.156 305.253C353.3 306.632 358.044 306.564 362.388 305.05C366.732 303.536 371.047 301.541 375.333 299.067L379.816 312.319C375.795 314.392 372.113 316.083 368.769 317.393C365.464 318.555 362.185 319.33 358.93 319.719C355.823 320.146 352.52 320.127 349.021 319.663C345.63 319.384 341.73 318.654 337.321 317.473C334.675 316.764 332.02 315.501 329.356 313.685C326.84 311.907 324.122 309.998 321.203 307.956C318.285 305.913 315.2 303.905 311.948 301.931C308.697 299.957 305.013 298.419 300.898 297.316C296.635 296.174 292.377 295.9 288.122 296.492C284.015 297.125 279.907 297.757 275.799 298.389L271.509 283.534C279.237 280.564 286.284 276.309 292.652 270.769C299.02 265.229 303.306 258.343 305.512 250.113C307.323 243.352 307.513 236.471 306.081 229.471L284.255 223.623L286.736 214.364L304.593 219.148C304.263 216.854 303.658 214.408 302.779 211.81C302.047 209.251 301.447 206.491 300.98 203.53C300.553 200.423 300.351 197.06 300.375 193.444C300.399 189.827 301.002 185.814 302.183 181.405C303.719 175.673 306.166 170.657 309.523 166.358C312.92 161.912 317.148 158.477 322.209 156.052C327.309 153.481 333.147 151.973 339.725 151.53C346.449 151.127 353.926 152.028 362.157 154.233C369.359 156.163 375.751 159.057 381.333 162.916C386.915 166.774 391.36 171.352 394.666 176.649C398.12 181.985 400.289 188.001 401.173 194.696C402.096 201.245 401.5 208.174 399.383 215.483L384.833 211.585C387.503 199.855 386.505 190.057 381.839 182.191C377.32 174.364 369.77 169.033 359.188 166.197C354.778 165.016 350.285 164.442 345.708 164.476C341.13 164.509 336.817 165.323 332.767 166.915C328.903 168.401 325.45 170.705 322.408 173.828C319.513 176.99 317.415 180.997 316.116 185.847C315.21 189.227 314.804 192.505 314.898 195.681C315.179 198.749 315.68 201.877 316.401 205.063C317.162 208.102 318.07 211.181 319.125 214.299C320.18 217.418 321.068 220.57 321.789 223.756L358.387 233.562Z" fill="black"/>
<path d="M144.292 172.933C140.197 174.108 136.509 175.877 133.23 178.242C130.097 180.565 127.498 183.369 125.432 186.652C123.47 189.747 122.167 193.207 121.523 197.033C121.024 200.816 121.363 204.756 122.537 208.851C123.921 213.678 125.806 217.491 128.191 220.289C130.723 223.046 133.62 225.144 136.881 226.583C140.248 227.833 143.875 228.614 147.763 228.924C151.797 229.191 156.029 229.323 160.46 229.319L144.292 172.933ZM193.357 305.127C197.892 303.826 201.903 301.806 205.391 299.064C209.025 296.281 211.979 293.06 214.254 289.4C216.529 285.74 217.998 281.757 218.663 277.451C219.286 272.998 218.926 268.432 217.584 263.751C216.032 258.339 213.875 254.13 211.114 251.123C208.31 247.969 205.058 245.736 201.357 244.423C197.76 242.921 193.726 242.1 189.253 241.958C184.926 241.774 180.276 241.841 175.302 242.159L193.357 305.127ZM201.536 333.649L191.444 336.543L186.662 319.868C174.02 322.702 162.723 322.221 152.77 318.427C142.964 314.591 134.983 306.907 128.827 295.375C127.989 293.558 127.246 291.792 126.596 290.079C125.946 288.366 125.297 286.652 124.647 284.939L138.908 280.85C140.334 285.823 142.481 290.273 145.348 294.199C148.173 297.98 151.531 301.133 155.421 303.658C159.415 305.995 163.754 307.6 168.436 308.474C173.119 309.347 177.989 309.217 183.046 308.084L164.361 242.922C157.945 243.179 151.758 243.132 145.801 242.783C139.948 242.245 134.607 241.006 129.777 239.067C124.905 236.982 120.628 233.934 116.945 229.925C113.409 225.873 110.655 220.411 108.684 213.536C106.923 207.393 106.499 201.499 107.413 195.855C108.328 190.211 110.256 185.067 113.199 180.425C116.287 175.74 120.213 171.765 124.975 168.5C129.696 165.089 135.075 162.596 141.114 161.023L137.277 147.64L147.369 144.746L151.207 158.129C157.203 156.409 163.013 155.693 168.636 155.98C174.217 156.121 179.391 157.329 184.158 159.602C188.884 161.73 193.036 164.892 196.614 169.09C200.192 173.288 203.008 178.416 205.062 184.475L190.801 188.565C189.669 184.616 187.836 181.263 185.305 178.506C182.878 175.562 180.012 173.296 176.708 171.711C173.551 170.084 170.028 169.115 166.14 168.806C162.398 168.454 158.553 168.844 154.604 169.977L171.338 228.337C179.009 228.037 186.063 228.072 192.501 228.442C198.938 228.812 204.687 230.092 209.747 232.282C214.808 234.472 219.211 237.958 222.956 242.741C226.807 247.335 229.927 253.801 232.318 262.138C234.163 268.574 234.43 274.75 233.119 280.666C231.766 286.436 229.326 291.726 225.798 296.537C222.417 301.305 218.146 305.458 212.987 308.996C207.828 312.533 202.417 315.192 196.755 316.974L201.536 333.649Z" fill="#F48C45"/>
<path d="M244.743 0C109.704 0 0.000732422 112.061 0.000732422 250C-0.0470657 254.492 2.24739 258.691 6.07149 260.986C9.89558 263.232 14.5801 263.232 18.4042 260.986C22.2283 258.691 24.5227 254.492 24.4749 250C24.4749 125.586 122.945 25 244.743 25C321.177 25 388.242 64.7461 427.773 125H342.639C338.242 124.951 334.131 127.295 331.884 131.201C329.685 135.107 329.685 139.893 331.884 143.799C334.131 147.705 338.242 150.049 342.639 150H465.01V25C465.058 21.6309 463.768 18.3594 461.425 15.9668C459.083 13.5742 455.88 12.2559 452.582 12.3047C445.842 12.4512 440.441 18.1152 440.536 25V100.146C395.842 39.3555 324.762 0 244.743 0ZM477.056 237.305C470.316 237.451 464.915 243.115 465.01 250C465.01 374.414 366.54 475 244.743 475C168.309 475 101.196 435.254 61.712 375H146.846C151.244 375.098 155.355 372.705 157.601 368.848C159.8 364.941 159.8 360.107 157.601 356.201C155.355 352.344 151.244 349.951 146.846 350H42.1614C40.5839 349.707 39.0065 349.707 37.429 350H24.4749V475C24.4271 479.492 26.7216 483.691 30.5457 485.986C34.3698 488.232 39.0543 488.232 42.8784 485.986C46.7025 483.691 48.9969 479.492 48.9491 475V399.805C93.5954 460.596 164.724 500 244.743 500C379.781 500 489.485 387.939 489.485 250C489.532 246.631 488.242 243.359 485.9 240.967C483.557 238.574 480.355 237.256 477.056 237.305Z" fill="url(#paint0_linear_753_33658)"/>
<defs>
<linearGradient id="paint0_linear_753_33658" x1="244.789" y1="274.992" x2="246.998" y2="286.077" gradientUnits="userSpaceOnUse">
<stop stop-color="#F48C45"/>
<stop offset="1"/>
</linearGradient>
</defs>
</svg>
